<svg width="132" height="150" viewBox="0 0 132 150" fill="none" xmlns="http://www.w3.org/2000/svg">
<path d="M44.5312 7.03125C44.5312 3.13477 41.3965 0 37.5 0C33.6035 0 30.4688 3.13477 30.4688 7.03125V18.75H18.75C8.4082 18.75 0 27.1582 0 37.5V42.1875V56.25V131.25C0 141.592 8.4082 150 18.75 150H112.5C122.842 150 131.25 141.592 131.25 131.25V56.25V42.1875V37.5C131.25 27.1582 122.842 18.75 112.5 18.75H100.781V7.03125C100.781 3.13477 97.6465 0 93.75 0C89.8535 0 86.7188 3.13477 86.7188 7.03125V18.75H44.5312V7.03125ZM14.0625 56.25H117.188V131.25C117.188 133.828 115.078 135.938 112.5 135.938H18.75C16.1719 135.938 14.0625 133.828 14.0625 131.25V56.25Z" fill="#55883B"/>
</svg>
