<svg width="67" height="50" viewBox="0 0 67 50" fill="none" xmlns="http://www.w3.org/2000/svg">
<path d="M8.33333 6.25C7.1875 6.25 6.25 7.1875 6.25 8.33333V11.2109L28.7109 29.6484C31.4062 31.862 35.2734 31.862 37.9687 29.6484L60.4167 11.2109V8.33333C60.4167 7.1875 59.4792 6.25 58.3333 6.25H8.33333ZM6.25 19.2969V41.6667C6.25 42.8125 7.1875 43.75 8.33333 43.75H58.3333C59.4792 43.75 60.4167 42.8125 60.4167 41.6667V19.2969L41.9271 34.4792C36.9271 38.5807 29.7266 38.5807 24.7396 34.4792L6.25 19.2969ZM0 8.33333C0 3.73698 3.73698 0 8.33333 0H58.3333C62.9297 0 66.6667 3.73698 66.6667 8.33333V41.6667C66.6667 46.263 62.9297 50 58.3333 50H8.33333C3.73698 50 0 46.263 0 41.6667V8.33333Z" fill="#9A6735"/>
</svg>
