<svg width="69" height="60" viewBox="0 0 69 60" fill="none" xmlns="http://www.w3.org/2000/svg">
<path d="M67.3125 33.0268C68.9866 31.3527 68.9866 28.6339 67.3125 26.9598L50.1696 9.81696C48.4955 8.14286 45.7768 8.14286 44.1027 9.81696C42.4286 11.4911 42.4286 14.2098 44.1027 15.8839L53.933 25.7143H25.7143C23.3438 25.7143 21.4286 27.6295 21.4286 30C21.4286 32.3705 23.3438 34.2857 25.7143 34.2857H53.933L44.1027 44.1161C42.4286 45.7902 42.4286 48.5089 44.1027 50.183C45.7768 51.8571 48.4955 51.8571 50.1696 50.183L67.3125 33.0402V33.0268ZM21.4286 8.57143C23.7991 8.57143 25.7143 6.65625 25.7143 4.28571C25.7143 1.91518 23.7991 0 21.4286 0H12.8571C5.75893 0 0 5.75893 0 12.8571V47.1429C0 54.2411 5.75893 60 12.8571 60H21.4286C23.7991 60 25.7143 58.0848 25.7143 55.7143C25.7143 53.3437 23.7991 51.4286 21.4286 51.4286H12.8571C10.4866 51.4286 8.57143 49.5134 8.57143 47.1429V12.8571C8.57143 10.4866 10.4866 8.57143 12.8571 8.57143H21.4286Z" fill="#D9D9D9"/>
</svg>
