<svg width="57" height="60" viewBox="0 0 57 60" fill="none" xmlns="http://www.w3.org/2000/svg">
<path d="M56.4061 19.5273C56.7811 20.547 56.4647 21.6839 55.6559 22.4106L50.5807 27.0287C50.7096 28.0016 50.78 28.9979 50.78 30.0059C50.78 31.0139 50.7096 32.0102 50.5807 32.983L55.6559 37.6011C56.4647 38.3278 56.7811 39.4647 56.4061 40.4845C55.8903 41.8793 55.2691 43.2155 54.5541 44.5048L54.0033 45.4542C53.2297 46.7435 52.3623 47.9625 51.4129 49.1112C50.7214 49.9551 49.5727 50.2364 48.5413 49.9082L42.0126 47.8336C40.442 49.0408 38.7073 50.0488 36.8554 50.8107L35.3902 57.5034C35.1558 58.57 34.3354 59.4139 33.257 59.5898C31.6395 59.8593 29.9751 60 28.2756 60C26.576 60 24.9116 59.8593 23.2941 59.5898C22.2158 59.4139 21.3953 58.57 21.1609 57.5034L19.6958 50.8107C17.8438 50.0488 16.1091 49.0408 14.5385 47.8336L8.02162 49.9199C6.99016 50.2481 5.8415 49.9551 5.14996 49.1229C4.20056 47.9742 3.3332 46.7552 2.55961 45.4659L2.00872 44.5165C1.29374 43.2272 0.672525 41.891 0.156799 40.4962C-0.218274 39.4765 0.0981938 38.3395 0.906946 37.6128L5.98216 32.9947C5.85322 32.0102 5.7829 31.0139 5.7829 30.0059C5.7829 28.9979 5.85322 28.0016 5.98216 27.0287L0.906946 22.4106C0.0981938 21.6839 -0.218274 20.547 0.156799 19.5273C0.672525 18.1324 1.29374 16.7963 2.00872 15.5069L2.55961 14.5575C3.3332 13.2682 4.20056 12.0492 5.14996 10.9006C5.8415 10.0567 6.99016 9.77535 8.02162 10.1035L14.5502 12.1782C16.1209 10.9709 17.8556 9.96288 19.7075 9.20102L21.1726 2.5083C21.407 1.44169 22.2275 0.597773 23.3059 0.421957C24.9234 0.140652 26.5877 0 28.2873 0C29.9868 0 31.6512 0.140652 33.2687 0.410236C34.3471 0.586052 35.1675 1.42997 35.402 2.49658L36.8671 9.1893C38.719 9.95116 40.4537 10.9592 42.0244 12.1664L48.553 10.0918C49.5844 9.76363 50.7331 10.0567 51.4246 10.8888C52.374 12.0375 53.2414 13.2565 54.015 14.5458L54.5659 15.4952C55.2809 16.7845 55.9021 18.1207 56.4178 19.5155L56.4061 19.5273ZM28.2873 39.3827C30.7742 39.3827 33.1592 38.3948 34.9177 36.6363C36.6762 34.8778 37.6641 32.4928 37.6641 30.0059C37.6641 27.519 36.6762 25.1339 34.9177 23.3754C33.1592 21.6169 30.7742 20.629 28.2873 20.629C25.8004 20.629 23.4154 21.6169 21.6569 23.3754C19.8984 25.1339 18.9105 27.519 18.9105 30.0059C18.9105 32.4928 19.8984 34.8778 21.6569 36.6363C23.4154 38.3948 25.8004 39.3827 28.2873 39.3827Z" fill="#D9D9D9"/>
</svg>
