<svg width="40" height="40" viewBox="0 0 40 40" fill="none" xmlns="http://www.w3.org/2000/svg">
<path d="M32.4952 16.2476C32.4952 19.833 31.3313 23.145 29.3707 25.8322L39.2599 35.7291C40.2363 36.7056 40.2363 38.2913 39.2599 39.2677C38.2835 40.2441 36.6977 40.2441 35.7213 39.2677L25.8322 29.3707C23.145 31.3392 19.833 32.4952 16.2476 32.4952C7.27237 32.4952 0 25.2229 0 16.2476C0 7.27237 7.27237 0 16.2476 0C25.2229 0 32.4952 7.27237 32.4952 16.2476ZM16.2476 27.496C17.7248 27.496 19.1875 27.205 20.5522 26.6397C21.9169 26.0745 23.1569 25.2459 24.2014 24.2014C25.2459 23.1569 26.0745 21.9169 26.6397 20.5522C27.205 19.1875 27.496 17.7248 27.496 16.2476C27.496 14.7705 27.205 13.3078 26.6397 11.9431C26.0745 10.5783 25.2459 9.33834 24.2014 8.29383C23.1569 7.24933 21.9169 6.42078 20.5522 5.8555C19.1875 5.29021 17.7248 4.99927 16.2476 4.99927C14.7705 4.99927 13.3078 5.29021 11.9431 5.8555C10.5783 6.42078 9.33834 7.24933 8.29383 8.29383C7.24933 9.33834 6.42078 10.5783 5.8555 11.9431C5.29021 13.3078 4.99927 14.7705 4.99927 16.2476C4.99927 17.7248 5.29021 19.1875 5.8555 20.5522C6.42078 21.9169 7.24933 23.1569 8.29383 24.2014C9.33834 25.2459 10.5783 26.0745 11.9431 26.6397C13.3078 27.205 14.7705 27.496 16.2476 27.496Z" fill="#9A6735"/>
</svg>
