<svg width="38" height="50" viewBox="0 0 38 50" fill="none" xmlns="http://www.w3.org/2000/svg">
<path d="M21.1191 48.8765C26.1419 42.5907 37.5973 27.356 37.5973 18.7986C37.5973 8.42023 29.1771 0 18.7986 0C8.42023 0 0 8.42023 0 18.7986C0 27.356 11.4554 42.5907 16.4782 48.8765C17.6825 50.3745 19.9148 50.3745 21.1191 48.8765ZM18.7986 12.5324C20.4606 12.5324 22.0544 13.1926 23.2295 14.3678C24.4047 15.5429 25.0649 17.1367 25.0649 18.7986C25.0649 20.4606 24.4047 22.0544 23.2295 23.2295C22.0544 24.4047 20.4606 25.0649 18.7986 25.0649C17.1367 25.0649 15.5429 24.4047 14.3678 23.2295C13.1926 22.0544 12.5324 20.4606 12.5324 18.7986C12.5324 17.1367 13.1926 15.5429 14.3678 14.3678C15.5429 13.1926 17.1367 12.5324 18.7986 12.5324Z" fill="#9A6735"/>
</svg>
