<svg width="44" height="50" viewBox="0 0 44 50" fill="none" xmlns="http://www.w3.org/2000/svg">
<path d="M14.0625 14.0625V18.75H29.6875V14.0625C29.6875 9.74609 26.1914 6.25 21.875 6.25C17.5586 6.25 14.0625 9.74609 14.0625 14.0625ZM7.8125 18.75V14.0625C7.8125 6.29883 14.1113 0 21.875 0C29.6387 0 35.9375 6.29883 35.9375 14.0625V18.75H37.5C40.9473 18.75 43.75 21.5527 43.75 25V43.75C43.75 47.1973 40.9473 50 37.5 50H6.25C2.80273 50 0 47.1973 0 43.75V25C0 21.5527 2.80273 18.75 6.25 18.75H7.8125Z" fill="#9A6735"/>
</svg>
