<svg width="78" height="83" viewBox="0 0 78 83" fill="none" xmlns="http://www.w3.org/2000/svg">
<path d="M41.5962 0C37.4845 0 33.9254 2.38301 32.2352 5.83594C31.0976 5.41445 29.8787 5.1875 28.5949 5.1875C22.858 5.1875 18.1938 9.84004 18.1938 15.5625V42.3916L17.755 41.9539C13.6921 37.9012 7.11012 37.9012 3.04719 41.9539C-1.01573 46.0066 -1.01573 52.5721 3.04719 56.6248L17.2999 70.8418C25.1007 78.623 35.6806 83 46.7155 83H48.0969H49.397C49.6408 83 49.8846 82.9838 50.1283 82.9352C65.0312 81.9301 76.9436 70.0637 77.935 55.1982C77.9837 54.9551 78 54.7119 78 54.4688V25.9375C78 20.215 73.3358 15.5625 67.5989 15.5625C66.7051 15.5625 65.8275 15.676 64.9986 15.8867V15.5625C64.9986 9.84004 60.3344 5.1875 54.5976 5.1875C53.3137 5.1875 52.0948 5.41445 50.9572 5.83594C49.267 2.38301 45.7079 0 41.5962 0ZM38.9959 15.5787V15.5625V10.375C38.9959 8.94844 40.1661 7.78125 41.5962 7.78125C43.0264 7.78125 44.1965 8.94844 44.1965 10.375V15.5463V15.5625V37.6094C44.1965 39.7654 45.9354 41.5 48.0969 41.5C50.2584 41.5 51.9973 39.7654 51.9973 37.6094V15.5625C51.9973 15.5625 51.9973 15.5625 51.9973 15.5463C51.9973 14.1197 53.1674 12.9525 54.5976 12.9525C56.0277 12.9525 57.1978 14.1197 57.1978 15.5463V24.6082V24.6244V37.5932C57.1978 39.7492 58.9368 41.4838 61.0982 41.4838C63.2597 41.4838 64.9986 39.7492 64.9986 37.5932V25.9537V25.9375C64.9986 24.5109 66.1688 23.3438 67.5989 23.3438C69.0291 23.3438 70.1992 24.5109 70.1992 25.9375V53.9662C70.1829 54.0635 70.1829 54.177 70.1667 54.2742C69.6141 65.5732 60.5294 74.6352 49.202 75.1863C49.1045 75.1863 48.9907 75.2025 48.8932 75.2188H48.0969H46.7155C37.7446 75.2188 29.1474 71.6686 22.8092 65.3463L8.55652 51.1131C7.54891 50.108 7.54891 48.4545 8.55652 47.4494C9.56412 46.4443 11.2218 46.4443 12.2294 47.4494L19.3314 54.5336C20.4528 55.6521 22.1267 55.9764 23.5893 55.3766C25.052 54.7768 25.9946 53.3502 25.9946 51.7777V15.5625C25.9946 14.1359 27.1647 12.9688 28.5949 12.9688C30.025 12.9688 31.1951 14.1197 31.1951 15.5463V37.6094C31.1951 39.7654 32.9341 41.5 35.0955 41.5C37.257 41.5 38.9959 39.7654 38.9959 37.6094V15.5787Z" fill="#9A6735"/>
<path d="M61 45.6875C61 51.6781 56.5387 56.6299 50.759 57.3945C50.3846 54.5785 49.1453 52.0367 47.3154 50.0486C49.3352 46.4416 53.1953 44 57.625 44H59.3125C60.2459 44 61 44.7541 61 45.6875ZM34 49.0625C34 48.1291 34.7541 47.375 35.6875 47.375H37.375C43.8982 47.375 49.1875 52.6643 49.1875 59.1875V60.875V69.3125C49.1875 70.2459 48.4334 71 47.5 71C46.5666 71 45.8125 70.2459 45.8125 69.3125V60.875C39.2893 60.875 34 55.5857 34 49.0625Z" fill="#55883B"/>
</svg>
