<svg width="60" height="60" viewBox="0 0 60 60" fill="none" xmlns="http://www.w3.org/2000/svg">
<path d="M30 60C37.9565 60 45.5871 56.8393 51.2132 51.2132C56.8393 45.5871 60 37.9565 60 30C60 22.0435 56.8393 14.4129 51.2132 8.7868C45.5871 3.16071 37.9565 0 30 0C22.0435 0 14.4129 3.16071 8.7868 8.7868C3.16071 14.4129 0 22.0435 0 30C0 37.9565 3.16071 45.5871 8.7868 51.2132C14.4129 56.8393 22.0435 60 30 60ZM27.1875 40.3125V32.8125H19.6875C18.1289 32.8125 16.875 31.5586 16.875 30C16.875 28.4414 18.1289 27.1875 19.6875 27.1875H27.1875V19.6875C27.1875 18.1289 28.4414 16.875 30 16.875C31.5586 16.875 32.8125 18.1289 32.8125 19.6875V27.1875H40.3125C41.8711 27.1875 43.125 28.4414 43.125 30C43.125 31.5586 41.8711 32.8125 40.3125 32.8125H32.8125V40.3125C32.8125 41.8711 31.5586 43.125 30 43.125C28.4414 43.125 27.1875 41.8711 27.1875 40.3125Z" fill="#55883B"/>
</svg>
