<svg width="65" height="60" viewBox="0 0 65 60" fill="none" xmlns="http://www.w3.org/2000/svg">
<path d="M11.9337 22.8528C12.965 19.933 14.6392 17.1873 16.9965 14.8435C25.3675 6.47246 38.9352 6.47246 47.3062 14.8435L49.5965 17.1472H45.0025C42.6318 17.1472 40.7166 19.0624 40.7166 21.4331C40.7166 23.8038 42.6318 25.7191 45.0025 25.7191H59.9364H59.99C62.3606 25.7191 64.2759 23.8038 64.2759 21.4331V6.43228C64.2759 4.06161 62.3606 2.14633 59.99 2.14633C57.6193 2.14633 55.704 4.06161 55.704 6.43228V11.1468L53.3601 8.78955C41.6407 -2.92985 22.6486 -2.92985 10.9292 8.78955C7.66114 12.0576 5.30387 15.9016 3.85736 20.0134C3.06714 22.2501 4.24577 24.6878 6.46911 25.478C8.69245 26.2682 11.1435 25.0896 11.9337 22.8662V22.8528ZM3.08053 34.4651C2.41085 34.666 1.76796 35.0276 1.24561 35.5634C0.709861 36.0991 0.348234 36.742 0.160723 37.4385C0.120543 37.5992 0.0803616 37.7733 0.0535744 37.9474C0.0133936 38.1751 0 38.4028 0 38.6305V53.5778C0 55.9484 1.91529 57.8637 4.28595 57.8637C6.65662 57.8637 8.57191 55.9484 8.57191 53.5778V48.8766L10.9292 51.2205C22.6486 62.9265 41.6407 62.9265 53.3467 51.2205C56.6148 47.9525 58.9854 44.1085 60.4319 40.01C61.2222 37.7733 60.0435 35.3357 57.8202 34.5455C55.5969 33.7552 53.1458 34.9339 52.3556 37.1572C51.3243 40.077 49.6501 42.8227 47.2928 45.1666C38.9218 53.5376 25.3541 53.5376 16.9831 45.1666L16.9697 45.1532L14.6794 42.8629H19.2868C21.6575 42.8629 23.5727 40.9476 23.5727 38.5769C23.5727 36.2063 21.6575 34.291 19.2868 34.291H4.33953C4.12523 34.291 3.91093 34.3044 3.69663 34.3312C3.48234 34.3579 3.28143 34.3981 3.08053 34.4651Z" fill="#D9D9D9"/>
</svg>
