<svg width="53" height="60" viewBox="0 0 53 60" fill="none" xmlns="http://www.w3.org/2000/svg">
<path d="M18.75 13.125C18.75 8.98828 22.1133 5.625 26.25 5.625C30.3867 5.625 33.75 8.98828 33.75 13.125V18.75H18.75V13.125ZM13.125 18.75H5.625C2.51953 18.75 0 21.2695 0 24.375V48.75C0 54.9609 5.03906 60 11.25 60H41.25C47.4609 60 52.5 54.9609 52.5 48.75V24.375C52.5 21.2695 49.9805 18.75 46.875 18.75H39.375V13.125C39.375 5.87109 33.5039 0 26.25 0C18.9961 0 13.125 5.87109 13.125 13.125V18.75ZM15.9375 24.375C16.6834 24.375 17.3988 24.6713 17.9262 25.1988C18.4537 25.7262 18.75 26.4416 18.75 27.1875C18.75 27.9334 18.4537 28.6488 17.9262 29.1762C17.3988 29.7037 16.6834 30 15.9375 30C15.1916 30 14.4762 29.7037 13.9488 29.1762C13.4213 28.6488 13.125 27.9334 13.125 27.1875C13.125 26.4416 13.4213 25.7262 13.9488 25.1988C14.4762 24.6713 15.1916 24.375 15.9375 24.375ZM33.75 27.1875C33.75 26.4416 34.0463 25.7262 34.5738 25.1988C35.1012 24.6713 35.8166 24.375 36.5625 24.375C37.3084 24.375 38.0238 24.6713 38.5512 25.1988C39.0787 25.7262 39.375 26.4416 39.375 27.1875C39.375 27.9334 39.0787 28.6488 38.5512 29.1762C38.0238 29.7037 37.3084 30 36.5625 30C35.8166 30 35.1012 29.7037 34.5738 29.1762C34.0463 28.6488 33.75 27.9334 33.75 27.1875Z" fill="#D9D9D9"/>
</svg>
