<svg width="172" height="150" viewBox="0 0 172 150" fill="none" xmlns="http://www.w3.org/2000/svg">
<path d="M21.4286 33.4487C21.4286 26.8192 26.8192 21.4286 33.4487 21.4286C36.6295 21.4286 39.6763 22.7009 41.9531 24.9442L47.3772 30.3683C40.346 43.3929 41.5513 59.6652 51.0268 71.5513L50.558 71.9866C47.4107 75.1339 47.4107 80.2232 50.558 83.3371C53.7054 86.4509 58.7946 86.4844 61.9085 83.3371L115.513 29.7991C118.661 26.6518 118.661 21.5625 115.513 18.4487C112.366 15.3348 107.277 15.3013 104.163 18.4487L103.728 18.8839C91.8415 9.40848 75.5357 8.20313 62.5446 15.2344L57.0871 9.81027C50.8259 3.51563 42.3214 0 33.4487 0C14.9665 0 0 14.9665 0 33.4487V139.286C0 145.212 4.78795 150 10.7143 150C16.6406 150 21.4286 145.212 21.4286 139.286V33.4487ZM85.7143 107.143C88.5559 107.143 91.2811 106.014 93.2904 104.005C95.2997 101.995 96.4286 99.2702 96.4286 96.4286C96.4286 93.587 95.2997 90.8617 93.2904 88.8524C91.2811 86.8431 88.5559 85.7143 85.7143 85.7143C82.8727 85.7143 80.1475 86.8431 78.1381 88.8524C76.1288 90.8617 75 93.587 75 96.4286C75 99.2702 76.1288 101.995 78.1381 104.005C80.1475 106.014 82.8727 107.143 85.7143 107.143ZM107.143 128.571C107.143 125.73 106.014 123.005 104.005 120.995C101.995 118.986 99.2702 117.857 96.4286 117.857C93.587 117.857 90.8617 118.986 88.8524 120.995C86.8431 123.005 85.7143 125.73 85.7143 128.571C85.7143 131.413 86.8431 134.138 88.8524 136.148C90.8617 138.157 93.587 139.286 96.4286 139.286C99.2702 139.286 101.995 138.157 104.005 136.148C106.014 134.138 107.143 131.413 107.143 128.571ZM107.143 85.7143C109.984 85.7143 112.71 84.5855 114.719 82.5761C116.728 80.5668 117.857 77.8416 117.857 75C117.857 72.1584 116.728 69.4332 114.719 67.4239C112.71 65.4145 109.984 64.2857 107.143 64.2857C104.301 64.2857 101.576 65.4145 99.5667 67.4239C97.5574 69.4332 96.4286 72.1584 96.4286 75C96.4286 77.8416 97.5574 80.5668 99.5667 82.5761C101.576 84.5855 104.301 85.7143 107.143 85.7143ZM128.571 107.143C128.571 104.301 127.443 101.576 125.433 99.5667C123.424 97.5574 120.699 96.4286 117.857 96.4286C115.016 96.4286 112.29 97.5574 110.281 99.5667C108.272 101.576 107.143 104.301 107.143 107.143C107.143 109.984 108.272 112.71 110.281 114.719C112.29 116.728 115.016 117.857 117.857 117.857C120.699 117.857 123.424 116.728 125.433 114.719C127.443 112.71 128.571 109.984 128.571 107.143ZM128.571 64.2857C131.413 64.2857 134.138 63.1569 136.148 61.1476C138.157 59.1383 139.286 56.413 139.286 53.5714C139.286 50.7298 138.157 48.0046 136.148 45.9953C134.138 43.986 131.413 42.8571 128.571 42.8571C125.73 42.8571 123.005 43.986 120.995 45.9953C118.986 48.0046 117.857 50.7298 117.857 53.5714C117.857 56.413 118.986 59.1383 120.995 61.1476C123.005 63.1569 125.73 64.2857 128.571 64.2857ZM150 85.7143C150 82.8727 148.871 80.1475 146.862 78.1381C144.853 76.1288 142.127 75 139.286 75C136.444 75 133.719 76.1288 131.71 78.1381C129.7 80.1475 128.571 82.8727 128.571 85.7143C128.571 88.5559 129.7 91.2811 131.71 93.2904C133.719 95.2997 136.444 96.4286 139.286 96.4286C142.127 96.4286 144.853 95.2997 146.862 93.2904C148.871 91.2811 150 88.5559 150 85.7143ZM160.714 75C163.556 75 166.281 73.8712 168.29 71.8619C170.3 69.8525 171.429 67.1273 171.429 64.2857C171.429 61.4441 170.3 58.7189 168.29 56.7096C166.281 54.7003 163.556 53.5714 160.714 53.5714C157.873 53.5714 155.147 54.7003 153.138 56.7096C151.129 58.7189 150 61.4441 150 64.2857C150 67.1273 151.129 69.8525 153.138 71.8619C155.147 73.8712 157.873 75 160.714 75Z" fill="#55883B"/>
</svg>
