<svg width="50" height="50" viewBox="0 0 50 50" fill="none" xmlns="http://www.w3.org/2000/svg">
<path d="M0 5.47495V22.5626C0 24.5057 0.765801 26.3687 2.13739 27.7403L22.254 47.8569C25.1114 50.7144 29.7405 50.7144 32.598 47.8569L47.8569 32.598C50.7143 29.7406 50.7143 25.1115 47.8569 22.254L27.7403 2.13743C26.3687 0.765841 24.5056 3.97106e-05 22.5626 3.97106e-05H5.48634C2.45742 -0.0113902 0 2.44603 0 5.47495ZM12.8015 9.13251C13.7715 9.13251 14.7018 9.51785 15.3877 10.2038C16.0737 10.8897 16.459 11.82 16.459 12.7901C16.459 13.7601 16.0737 14.6904 15.3877 15.3763C14.7018 16.0623 13.7715 16.4476 12.8015 16.4476C11.8314 16.4476 10.9011 16.0623 10.2152 15.3763C9.52924 14.6904 9.14389 13.7601 9.14389 12.7901C9.14389 11.82 9.52924 10.8897 10.2152 10.2038C10.9011 9.51785 11.8314 9.13251 12.8015 9.13251Z" fill="#9A6735"/>
</svg>
