<svg width="150" height="150" viewBox="0 0 150 150" fill="none" xmlns="http://www.w3.org/2000/svg">
<path d="M65.625 0C70.8105 0 75 4.18945 75 9.375V12.8906L103.125 9.375C108.311 9.375 112.5 13.5645 112.5 18.75C112.5 23.9355 108.311 28.125 103.125 28.125L75 24.6094L65.918 23.4668L65.625 23.4375L65.332 23.4668L56.25 24.6094L28.125 28.125C22.9395 28.125 18.75 23.9355 18.75 18.75C18.75 13.5645 22.9395 9.375 28.125 9.375L56.25 12.8906V9.375C56.25 4.18945 60.4395 0 65.625 0ZM0 65.625C0 60.4395 4.18945 56.25 9.375 56.25H37.5L44.1211 49.6289C45.8789 47.8711 48.252 46.875 50.7422 46.875H56.25V34.043L65.625 32.8711L75 34.043V46.875H80.4785C82.9688 46.875 85.3418 47.8711 87.0996 49.6289L93.75 56.25H103.125C129.023 56.25 150 77.2266 150 103.125C150 108.311 145.811 112.5 140.625 112.5H121.875C116.689 112.5 112.5 108.311 112.5 103.125C112.5 97.9395 108.311 93.75 103.125 93.75H92.5488C86.6309 102.246 76.7578 107.812 65.625 107.812C54.4922 107.812 44.6191 102.246 38.7012 93.75H9.375C4.18945 93.75 0 89.5605 0 84.375V65.625ZM127.969 124.043C128.525 122.725 129.814 121.875 131.25 121.875C132.686 121.875 133.945 122.725 134.531 124.043L139.863 136.465C140.391 137.666 140.654 138.984 140.654 140.303V140.625C140.654 145.811 136.465 150 131.279 150C126.094 150 121.904 145.811 121.904 140.625V140.273C121.904 138.955 122.168 137.666 122.695 136.436L128.027 124.014L127.969 124.043Z" fill="#55883B"/>
</svg>
