<svg width="113" height="150" viewBox="0 0 113 150" fill="none" xmlns="http://www.w3.org/2000/svg">
<path d="M9.375 0C4.18945 0 0 4.18945 0 9.375C0 14.5605 4.18945 18.75 9.375 18.75V21.9727C9.375 34.3945 14.3262 46.3184 23.1152 55.1074L42.9785 75L23.1152 94.8926C14.3262 103.682 9.375 115.605 9.375 128.027V131.25C4.18945 131.25 0 135.439 0 140.625C0 145.811 4.18945 150 9.375 150H18.75H93.75H103.125C108.311 150 112.5 145.811 112.5 140.625C112.5 135.439 108.311 131.25 103.125 131.25V128.027C103.125 115.605 98.1738 103.682 89.3848 94.8926L69.5215 75L89.4141 55.1074C98.2031 46.3184 103.154 34.3945 103.154 21.9727V18.75C108.34 18.75 112.529 14.5605 112.529 9.375C112.529 4.18945 108.34 0 103.154 0H93.75H18.75H9.375ZM84.375 128.027V131.25H28.125V128.027C28.125 120.557 31.084 113.408 36.3574 108.135L56.25 88.2715L76.1426 108.164C81.416 113.438 84.375 120.586 84.375 128.057V128.027Z" fill="#55883B"/>
</svg>
