<svg width="115" height="100" viewBox="0 0 115 100" fill="none" xmlns="http://www.w3.org/2000/svg">
<path d="M57.1346 0C60.3043 0 63.2284 1.67411 64.8355 4.41964L113.05 86.5625C114.679 89.3304 114.679 92.7455 113.094 95.5134C111.51 98.2812 108.541 100 105.349 100H8.92033C5.72837 100 2.75962 98.2812 1.1748 95.5134C-0.410024 92.7455 -0.387703 89.308 1.21944 86.5625L49.4337 4.41964C51.0409 1.67411 53.965 0 57.1346 0ZM57.1346 28.5714C54.1659 28.5714 51.7775 30.9598 51.7775 33.9286V58.9286C51.7775 61.8973 54.1659 64.2857 57.1346 64.2857C60.1034 64.2857 62.4918 61.8973 62.4918 58.9286V33.9286C62.4918 30.9598 60.1034 28.5714 57.1346 28.5714ZM64.2775 78.5714C64.2775 76.677 63.5249 74.8602 62.1854 73.5207C60.8458 72.1811 59.029 71.4286 57.1346 71.4286C55.2402 71.4286 53.4234 72.1811 52.0839 73.5207C50.7443 74.8602 49.9918 76.677 49.9918 78.5714C49.9918 80.4658 50.7443 82.2826 52.0839 83.6222C53.4234 84.9617 55.2402 85.7143 57.1346 85.7143C59.029 85.7143 60.8458 84.9617 62.1854 83.6222C63.5249 82.2826 64.2775 80.4658 64.2775 78.5714Z" fill="#FD9900"/>
</svg>
