<svg width="53" height="60" viewBox="0 0 53 60" fill="none" xmlns="http://www.w3.org/2000/svg">
<path d="M26.25 30C30.2282 30 34.0436 28.4196 36.8566 25.6066C39.6696 22.7936 41.25 18.9782 41.25 15C41.25 11.0218 39.6696 7.20644 36.8566 4.3934C34.0436 1.58035 30.2282 0 26.25 0C22.2718 0 18.4564 1.58035 15.6434 4.3934C12.8304 7.20644 11.25 11.0218 11.25 15C11.25 18.9782 12.8304 22.7936 15.6434 25.6066C18.4564 28.4196 22.2718 30 26.25 30ZM20.8945 35.625C9.35156 35.625 0 44.9766 0 56.5195C0 58.4414 1.55859 60 3.48047 60H49.0195C50.9414 60 52.5 58.4414 52.5 56.5195C52.5 44.9766 43.1484 35.625 31.6055 35.625H20.8945Z" fill="#D9D9D9"/>
</svg>
