<svg width="300" height="200" viewBox="0 0 300 200" fill="none" xmlns="http://www.w3.org/2000/svg">
<path d="M140.307 3.08799C146.088 -1.02587 153.795 -1.02587 159.575 3.08799C171.292 11.1595 185.612 16.6793 199.932 16.6793C213.94 16.6793 228.781 11.0553 240.238 3.08799C246.434 -1.33831 254.87 -0.973794 260.651 3.97324C268.149 10.1701 277.575 14.9088 287 17.0959C295.957 19.1789 301.529 28.1356 299.446 37.0924C297.363 46.0491 288.406 51.621 279.449 49.5381C266.691 46.5698 256.068 40.9458 249.142 36.5195C234.041 44.6431 217.117 50.0067 199.932 50.0067C183.321 50.0067 168.375 44.8514 158.065 40.1647C155.044 38.7587 152.285 37.4048 149.941 36.155C147.598 37.4048 144.89 38.8108 141.818 40.1647C131.507 44.8514 116.562 50.0067 99.9501 50.0067C82.7656 50.0067 65.8416 44.6431 50.7401 36.5716C43.7621 40.9458 33.1911 46.6219 20.433 49.5901C11.4762 51.6731 2.51947 46.1012 0.436512 37.1444C-1.64645 28.1877 3.92547 19.231 12.8822 17.148C22.2555 14.9088 31.733 10.1701 39.1796 3.97324C44.9598 -0.973794 53.3958 -1.28624 59.5927 3.08799C71.1531 11.0553 85.9421 16.6793 99.9501 16.6793C114.27 16.6793 128.591 11.1595 140.307 3.08799ZM159.575 153.061C171.292 161.133 185.612 166.653 199.932 166.653C213.94 166.653 228.781 161.029 240.238 153.061C246.434 148.635 254.87 149 260.651 153.947C268.149 160.143 277.575 164.882 287 167.069C295.957 169.152 301.529 178.109 299.446 187.066C297.363 196.022 288.406 201.594 279.449 199.511C266.691 196.543 256.068 190.919 249.142 186.493C234.041 194.616 217.117 199.98 199.932 199.98C183.321 199.98 168.375 194.825 158.065 190.138C155.044 188.732 152.285 187.378 149.941 186.128C147.598 187.378 144.89 188.784 141.818 190.138C131.507 194.825 116.562 199.98 99.9501 199.98C82.7656 199.98 65.8416 194.616 50.7401 186.545C43.7621 190.919 33.1911 196.595 20.433 199.564C11.4762 201.646 2.51947 196.075 0.436512 187.118C-1.64645 178.161 3.92547 169.204 12.8822 167.121C22.3076 164.934 31.733 160.195 39.2317 153.999C45.0119 149.104 53.4479 148.739 59.6447 153.113C71.1531 161.029 85.9421 166.653 99.9501 166.653C114.27 166.653 128.591 161.133 140.307 153.061C146.088 148.947 153.795 148.947 159.575 153.061ZM159.575 78.0747C171.292 86.1461 185.612 91.666 199.932 91.666C213.94 91.666 228.781 86.042 240.238 78.0747C246.434 73.6484 254.87 74.0129 260.651 78.9599C268.149 85.1567 277.575 89.8955 287 92.0826C295.957 94.1656 301.529 103.122 299.446 112.079C297.363 121.036 288.406 126.608 279.449 124.525C266.691 121.557 256.068 115.933 249.142 111.506C234.041 119.63 217.117 124.993 199.932 124.993C183.321 124.993 168.375 119.838 158.065 115.151C155.044 113.745 152.285 112.391 149.941 111.142C147.598 112.391 144.89 113.797 141.818 115.151C131.507 119.838 116.562 124.993 99.9501 124.993C82.7656 124.993 65.8416 119.63 50.7401 111.558C43.7621 115.933 33.1911 121.609 20.433 124.577C11.4762 126.66 2.51947 121.088 0.436512 112.131C-1.64645 103.174 3.92547 94.2176 12.8822 92.1347C22.3076 89.9475 31.733 85.2088 39.2317 79.012C45.0119 74.065 53.4479 73.7525 59.6447 78.1267C71.1531 86.042 85.9421 91.666 99.9501 91.666C114.27 91.666 128.591 86.1461 140.307 78.0747C146.088 73.9608 153.795 73.9608 159.575 78.0747Z" fill="#74CCF4"/>
</svg>
