<svg width="72" height="50" viewBox="0 0 72 50" fill="none" xmlns="http://www.w3.org/2000/svg">
<path d="M6.04842 19.0737C13.7493 11.6853 24.1957 7.14286 35.7136 7.14286C47.2315 7.14286 57.6779 11.6853 65.3788 19.0737C66.8073 20.4353 69.0618 20.3906 70.4234 18.9732C71.785 17.5558 71.7404 15.2902 70.323 13.9286C61.3498 5.30134 49.1511 0 35.7136 0C22.2761 0 10.0774 5.30134 1.09306 13.9174C-0.324346 15.2902 -0.368989 17.5446 0.992618 18.9732C2.35423 20.4018 4.61985 20.4464 6.03726 19.0737H6.04842ZM35.7136 25C42.0529 25 47.8341 27.3549 52.2538 31.25C53.7382 32.5558 55.9926 32.4107 57.2984 30.9375C58.6042 29.4643 58.4591 27.1987 56.9859 25.8929C51.3163 20.8929 43.8609 17.8571 35.7136 17.8571C27.5663 17.8571 20.1109 20.8929 14.4524 25.8929C12.9681 27.1987 12.8341 29.4531 14.1399 30.9375C15.4457 32.4219 17.7002 32.5558 19.1846 31.25C23.5931 27.3549 29.3743 25 35.7248 25H35.7136ZM42.8565 42.8571C42.8565 40.9627 42.1039 39.1459 40.7644 37.8064C39.4248 36.4668 37.608 35.7143 35.7136 35.7143C33.8192 35.7143 32.0024 36.4668 30.6628 37.8064C29.3233 39.1459 28.5707 40.9627 28.5707 42.8571C28.5707 44.7515 29.3233 46.5684 30.6628 47.9079C32.0024 49.2474 33.8192 50 35.7136 50C37.608 50 39.4248 49.2474 40.7644 47.9079C42.1039 46.5684 42.8565 44.7515 42.8565 42.8571Z" fill="#9A6735"/>
</svg>
