<svg width="143" height="100" viewBox="0 0 143 100" fill="none" xmlns="http://www.w3.org/2000/svg">
<path d="M12.0968 38.1473C27.4986 23.3705 48.3915 14.2857 71.4272 14.2857C94.4629 14.2857 115.356 23.3705 130.758 38.1473C133.615 40.8705 138.124 40.7812 140.847 37.9464C143.57 35.1116 143.481 30.5804 140.646 27.8571C122.7 10.6027 98.3022 0 71.4272 0C44.5522 0 20.1549 10.6027 2.18613 27.8348C-0.648691 30.5804 -0.737977 35.0893 1.98524 37.9464C4.70845 40.8036 9.2397 40.8929 12.0745 38.1473H12.0968ZM71.4272 50C84.1058 50 95.6683 54.7098 104.508 62.5C107.476 65.1116 111.985 64.8214 114.597 61.875C117.208 58.9286 116.918 54.3973 113.972 51.7857C102.633 41.7857 87.7218 35.7143 71.4272 35.7143C55.1326 35.7143 40.2218 41.7857 28.9049 51.7857C25.9361 54.3973 25.6683 58.9063 28.2799 61.875C30.8915 64.8438 35.4004 65.1116 38.3692 62.5C47.1861 54.7098 58.7486 50 71.4495 50H71.4272ZM85.7129 85.7143C85.7129 81.9255 84.2078 78.2919 81.5287 75.6128C78.8496 72.9337 75.216 71.4286 71.4272 71.4286C67.6384 71.4286 64.0048 72.9337 61.3257 75.6128C58.6466 78.2919 57.1415 81.9255 57.1415 85.7143C57.1415 89.5031 58.6466 93.1367 61.3257 95.8158C64.0048 98.4949 67.6384 100 71.4272 100C75.216 100 78.8496 98.4949 81.5287 95.8158C84.2078 93.1367 85.7129 89.5031 85.7129 85.7143Z" fill="#0C9B05"/>
</svg>
